<svg version="1.1" xmlns="http://www.w3.org/2000/svg" xmlns:xlink="http://www.w3.org/1999/xlink" width="453.97247" height="59.24245" viewBox="0,0,453.97247,59.24245"><g transform="translate(77.78332,-153.87514)"><g data-paper-data="{&quot;isPaintingLayer&quot;:true}" fill="#ff0000" fill-rule="nonzero" stroke="#d00000" stroke-width="2" stroke-linecap="round" stroke-linejoin="miter" stroke-miterlimit="10" stroke-dasharray="" stroke-dashoffset="0" style="mix-blend-mode: normal"><path d="M-19.54668,174.80557l-28.45238,34.03372l-28.45238,-34.39967l17.83582,-19.02961l11.46588,14.63816l11.46588,-14.27221z"/><path d="M45.92951,175.28176l-28.45238,34.03372l-28.45238,-34.39967l17.83582,-19.02961l11.46588,14.63816l11.46588,-14.27221z"/><path d="M111.88189,175.51985l-28.45238,34.03372l-28.45238,-34.39967l17.83582,-19.02961l11.46588,14.63816l11.46588,-14.27221z"/><path d="M177.35808,175.99604l-28.45238,34.03372l-28.45238,-34.39967l17.83582,-19.02961l11.46588,14.63816l11.46588,-14.27221z"/><path d="M243.45332,176.80557l-28.45238,34.03372l-28.45238,-34.39967l17.83582,-19.02961l11.46588,14.63816l11.46588,-14.27221z"/><path d="M308.92951,177.28176l-28.45238,34.03372l-28.45238,-34.39967l17.83582,-19.02961l11.46588,14.63816l11.46588,-14.27221z"/><path d="M374.88189,177.51985l-28.45238,34.03372l-28.45238,-34.39967l17.83582,-19.02961l11.46588,14.63816l11.46588,-14.27221z"/></g></g></svg>